<svg width="48" height="48" viewBox="0 0 48 48" fill="none" xmlns="http://www.w3.org/2000/svg">
<rect width="48" height="48" rx="14" fill="#E0D8FF"/>
<path d="M24.1607 32.18C23.0674 32.18 22.0407 31.9733 21.0807 31.56C20.134 31.16 19.294 30.6 18.5607 29.88C17.8407 29.1467 17.274 28.3 16.8607 27.34C16.4474 26.38 16.2407 25.3533 16.2407 24.26C16.2407 23.1667 16.4474 22.14 16.8607 21.18C17.274 20.22 17.8407 19.38 18.5607 18.66C19.294 17.9267 20.134 17.36 21.0807 16.96C22.0407 16.5467 23.0674 16.34 24.1607 16.34C25.254 16.34 26.2807 16.5467 27.2407 16.96C28.2007 17.36 29.0407 17.9267 29.7607 18.66C30.494 19.38 31.0607 20.22 31.4607 21.18C31.874 22.14 32.0807 23.1667 32.0807 24.26C32.0807 25.3533 31.874 26.38 31.4607 27.34C31.0607 28.3 30.494 29.1467 29.7607 29.88C29.0407 30.6 28.2007 31.16 27.2407 31.56C26.2807 31.9733 25.254 32.18 24.1607 32.18ZM24.1607 30.8C25.0674 30.8 25.914 30.6333 26.7007 30.3C27.4874 29.9533 28.1807 29.48 28.7807 28.88C29.3807 28.28 29.8474 27.5867 30.1807 26.8C30.5274 26.0133 30.7007 25.1667 30.7007 24.26C30.7007 23.3533 30.5274 22.5067 30.1807 21.72C29.8474 20.9333 29.3807 20.24 28.7807 19.64C28.1807 19.04 27.4874 18.5733 26.7007 18.24C25.914 17.8933 25.0674 17.72 24.1607 17.72C23.254 17.72 22.4074 17.8933 21.6207 18.24C20.834 18.5733 20.1407 19.04 19.5407 19.64C18.9407 20.24 18.4674 20.9333 18.1207 21.72C17.7874 22.5067 17.6207 23.3533 17.6207 24.26C17.6207 25.1667 17.7874 26.0133 18.1207 26.8C18.4674 27.5867 18.9407 28.28 19.5407 28.88C20.1407 29.48 20.834 29.9533 21.6207 30.3C22.4074 30.6333 23.254 30.8 24.1607 30.8ZM24.1607 29.84C23.3874 29.84 22.6607 29.7 21.9807 29.42C21.314 29.1267 20.7207 28.7267 20.2007 28.22C19.694 27.7 19.294 27.1067 19.0007 26.44C18.7207 25.76 18.5807 25.0333 18.5807 24.26C18.5807 23.4867 18.7207 22.7667 19.0007 22.1C19.294 21.42 19.694 20.8267 20.2007 20.32C20.7207 19.8 21.314 19.4 21.9807 19.12C22.6607 18.8267 23.3874 18.68 24.1607 18.68C24.934 18.68 25.6607 18.8267 26.3407 19.12C27.0207 19.4 27.614 19.8 28.1207 20.32C28.6407 20.8267 29.0407 21.42 29.3207 22.1C29.614 22.7667 29.7607 23.4867 29.7607 24.26C29.7607 25.0333 29.614 25.76 29.3207 26.44C29.0407 27.1067 28.6407 27.7 28.1207 28.22C27.614 28.7267 27.0207 29.1267 26.3407 29.42C25.6607 29.7 24.934 29.84 24.1607 29.84Z" fill="#341D8A"/>
</svg>
