<svg width="51" height="48" viewBox="0 0 51 48" fill="none" xmlns="http://www.w3.org/2000/svg">
<rect x="1.19556" width="48" height="48" rx="14" fill="#FFF3CF"/>
<path d="M-3.69549e-05 25.34V23.24H8.39996V25.34H-3.69549e-05ZM11.7207 31.5L16.5607 19.66H10.4007V17.1H19.4807V19.66L14.6607 31.5H11.7207ZM27.2197 31.8C26.153 31.8 25.2197 31.5767 24.4197 31.13C23.6197 30.6833 22.9963 30.06 22.5497 29.26C22.103 28.46 21.8797 27.5267 21.8797 26.46V22.14C21.8797 21.0733 22.103 20.14 22.5497 19.34C22.9963 18.54 23.6197 17.9167 24.4197 17.47C25.2197 17.0233 26.153 16.8 27.2197 16.8C28.2863 16.8 29.2197 17.0233 30.0197 17.47C30.8197 17.9167 31.443 18.54 31.8897 19.34C32.3363 20.14 32.5597 21.0733 32.5597 22.14V26.46C32.5597 27.5267 32.3363 28.46 31.8897 29.26C31.443 30.06 30.8197 30.6833 30.0197 31.13C29.2197 31.5767 28.2863 31.8 27.2197 31.8ZM27.2197 29.22C27.6997 29.22 28.133 29.1067 28.5197 28.88C28.9063 28.6533 29.213 28.3467 29.4397 27.96C29.6663 27.5733 29.7797 27.14 29.7797 26.66V21.92C29.7797 21.44 29.6663 21.0067 29.4397 20.62C29.213 20.2333 28.9063 19.9267 28.5197 19.7C28.133 19.4733 27.6997 19.36 27.2197 19.36C26.7397 19.36 26.3063 19.4733 25.9197 19.7C25.533 19.9267 25.2263 20.2333 24.9997 20.62C24.773 21.0067 24.6597 21.44 24.6597 21.92V26.66C24.6597 27.14 24.773 27.5733 24.9997 27.96C25.2263 28.3467 25.533 28.6533 25.9197 28.88C26.3063 29.1067 26.7397 29.22 27.2197 29.22ZM37.5562 31.5L35.7562 29.7L48.3562 17.1L50.1562 18.92L37.5562 31.5ZM47.1562 31.8C46.4962 31.8 45.8929 31.64 45.3462 31.32C44.8062 30.9933 44.3729 30.56 44.0462 30.02C43.7195 29.4733 43.5562 28.8667 43.5562 28.2C43.5562 27.5467 43.7229 26.9467 44.0562 26.4C44.3895 25.8533 44.8295 25.4167 45.3762 25.09C45.9229 24.7633 46.5162 24.6 47.1562 24.6C47.8162 24.6 48.4195 24.7633 48.9662 25.09C49.5129 25.41 49.9462 25.8433 50.2662 26.39C50.5929 26.93 50.7562 27.5333 50.7562 28.2C50.7562 28.8667 50.5929 29.4733 50.2662 30.02C49.9462 30.56 49.5129 30.9933 48.9662 31.32C48.4195 31.64 47.8162 31.8 47.1562 31.8ZM47.1562 29.5C47.3895 29.5 47.6029 29.44 47.7962 29.32C47.9962 29.2 48.1562 29.0433 48.2762 28.85C48.3962 28.65 48.4562 28.4333 48.4562 28.2C48.4562 27.9667 48.3962 27.7533 48.2762 27.56C48.1562 27.36 47.9962 27.2 47.7962 27.08C47.6029 26.96 47.3895 26.9 47.1562 26.9C46.9229 26.9 46.7062 26.96 46.5062 27.08C46.3129 27.2 46.1562 27.36 46.0362 27.56C45.9162 27.7533 45.8562 27.9667 45.8562 28.2C45.8562 28.4333 45.9162 28.65 46.0362 28.85C46.1562 29.0433 46.3129 29.2 46.5062 29.32C46.7062 29.44 46.9229 29.5 47.1562 29.5ZM38.7562 24C38.0962 24 37.4929 23.84 36.9462 23.52C36.3995 23.1933 35.9629 22.76 35.6362 22.22C35.3162 21.6733 35.1562 21.0667 35.1562 20.4C35.1562 19.7467 35.3229 19.1467 35.6562 18.6C35.9895 18.0533 36.4295 17.6167 36.9762 17.29C37.5229 16.9633 38.1162 16.8 38.7562 16.8C39.4162 16.8 40.0162 16.9633 40.5562 17.29C41.1029 17.61 41.5395 18.0433 41.8662 18.59C42.1929 19.13 42.3562 19.7333 42.3562 20.4C42.3562 21.0667 42.1929 21.6733 41.8662 22.22C41.5395 22.76 41.1029 23.1933 40.5562 23.52C40.0162 23.84 39.4162 24 38.7562 24ZM38.7562 21.7C38.9895 21.7 39.2029 21.64 39.3962 21.52C39.5962 21.4 39.7562 21.2433 39.8762 21.05C39.9962 20.85 40.0562 20.6333 40.0562 20.4C40.0562 20.1667 39.9962 19.9533 39.8762 19.76C39.7562 19.56 39.5962 19.4 39.3962 19.28C39.2029 19.16 38.9895 19.1 38.7562 19.1C38.5229 19.1 38.3062 19.16 38.1062 19.28C37.9129 19.4 37.7562 19.56 37.6362 19.76C37.5162 19.9533 37.4562 20.1667 37.4562 20.4C37.4562 20.6333 37.5162 20.85 37.6362 21.05C37.7562 21.2433 37.9129 21.4 38.1062 21.52C38.3062 21.64 38.5229 21.7 38.7562 21.7Z" fill="#6B5200"/>
</svg>
