<svg width="40" height="40" viewBox="0 0 40 40" fill="none" xmlns="http://www.w3.org/2000/svg">
<rect width="40" height="40" rx="12" fill="#1F56FF" fill-opacity="0.1"/>
<g clip-path="url(#clip0_539_2233)">
<path d="M19.9999 28.3335C19.9999 28.3335 26.6666 22.0168 26.6666 17.5002C26.6666 15.7321 25.9642 14.0364 24.714 12.7861C23.4637 11.5359 21.768 10.8335 19.9999 10.8335C18.2318 10.8335 16.5361 11.5359 15.2859 12.7861C14.0356 14.0364 13.3333 15.7321 13.3333 17.5002C13.3333 22.0168 19.9999 28.3335 19.9999 28.3335Z" stroke="#1F56FF" stroke-width="1.33333"/>
<path d="M20 20C21.3807 20 22.5 18.8807 22.5 17.5C22.5 16.1193 21.3807 15 20 15C18.6193 15 17.5 16.1193 17.5 17.5C17.5 18.8807 18.6193 20 20 20Z" stroke="#1F56FF" stroke-width="1.33333"/>
</g>
<defs>
<clipPath id="clip0_539_2233">
<rect width="20" height="20" fill="white" transform="translate(10 10)"/>
</clipPath>
</defs>
</svg>
