<svg width="120" height="50" viewBox="0 0 120 50" fill="none" xmlns="http://www.w3.org/2000/svg">
<rect x="8" y="2" width="34" height="34" rx="10" fill="url(#paint0_linear_539_1018)"/>
<g filter="url(#filter0_d_539_1018)">
<rect x="8" y="2" width="34" height="34" rx="10" fill="white" fill-opacity="0.01" shape-rendering="crispEdges"/>
</g>
<path d="M19.3201 23.15V15.142L17.4301 16.304V14.204L19.3201 13.07H21.2661V23.15H19.3201ZM28.2535 23.36C27.2455 23.36 26.3752 23.1407 25.6425 22.702C24.9145 22.2633 24.3522 21.6497 23.9555 20.861C23.5635 20.0723 23.3675 19.1553 23.3675 18.11C23.3675 17.0647 23.5635 16.1477 23.9555 15.359C24.3522 14.5703 24.9145 13.9567 25.6425 13.518C26.3752 13.0793 27.2455 12.86 28.2535 12.86C29.4108 12.86 30.3815 13.147 31.1655 13.721C31.9542 14.295 32.5095 15.072 32.8315 16.052L30.9135 16.584C30.7268 15.9727 30.4118 15.499 29.9685 15.163C29.5252 14.8223 28.9535 14.652 28.2535 14.652C27.6142 14.652 27.0798 14.7943 26.6505 15.079C26.2258 15.3637 25.9062 15.765 25.6915 16.283C25.4768 16.801 25.3695 17.41 25.3695 18.11C25.3695 18.81 25.4768 19.419 25.6915 19.937C25.9062 20.455 26.2258 20.8563 26.6505 21.141C27.0798 21.4257 27.6142 21.568 28.2535 21.568C28.9535 21.568 29.5252 21.3977 29.9685 21.057C30.4118 20.7163 30.7268 20.2427 30.9135 19.636L32.8315 20.168C32.5095 21.148 31.9542 21.925 31.1655 22.499C30.3815 23.073 29.4108 23.36 28.2535 23.36Z" fill="white"/>
<path d="M55.51 25.04V14.744L53.08 16.238V13.538L55.51 12.08H58.012V25.04H55.51ZM66.8158 25.31C65.5198 25.31 64.4008 25.028 63.4588 24.464C62.5228 23.9 61.7998 23.111 61.2898 22.097C60.7858 21.083 60.5338 19.904 60.5338 18.56C60.5338 17.216 60.7858 16.037 61.2898 15.023C61.7998 14.009 62.5228 13.22 63.4588 12.656C64.4008 12.092 65.5198 11.81 66.8158 11.81C68.3038 11.81 69.5518 12.179 70.5598 12.917C71.5738 13.655 72.2878 14.654 72.7018 15.914L70.2358 16.598C69.9958 15.812 69.5908 15.203 69.0208 14.771C68.4508 14.333 67.7158 14.114 66.8158 14.114C65.9938 14.114 65.3068 14.297 64.7548 14.663C64.2088 15.029 63.7978 15.545 63.5218 16.211C63.2458 16.877 63.1078 17.66 63.1078 18.56C63.1078 19.46 63.2458 20.243 63.5218 20.909C63.7978 21.575 64.2088 22.091 64.7548 22.457C65.3068 22.823 65.9938 23.006 66.8158 23.006C67.7158 23.006 68.4508 22.787 69.0208 22.349C69.5908 21.911 69.9958 21.302 70.2358 20.522L72.7018 21.206C72.2878 22.466 71.5738 23.465 70.5598 24.203C69.5518 24.941 68.3038 25.31 66.8158 25.31ZM74.3235 19.496V17.606H79.7235V19.496H74.3235ZM87.0121 25.31C86.0401 25.31 85.1701 25.163 84.4021 24.869C83.6401 24.569 82.9921 24.116 82.4581 23.51C81.9301 22.904 81.5281 22.142 81.2521 21.224L83.6461 20.63C83.8741 21.32 84.2671 21.89 84.8251 22.34C85.3831 22.79 86.0581 23.012 86.8501 23.006C87.4081 22.994 87.9391 22.883 88.4431 22.673C88.9531 22.463 89.3641 22.142 89.6761 21.71C89.9041 21.422 90.0781 21.107 90.1981 20.765C90.3241 20.417 90.4141 20.06 90.4681 19.694H85.9321V17.408H90.4861C90.3781 16.748 90.1681 16.169 89.8561 15.671C89.5441 15.173 89.1361 14.786 88.6321 14.51C88.1281 14.234 87.5341 14.102 86.8501 14.114C86.0401 14.12 85.3501 14.348 84.7801 14.798C84.2161 15.248 83.8261 15.848 83.6101 16.598L81.1621 16.256C81.4861 14.84 82.1551 13.745 83.1691 12.971C84.1831 12.197 85.4641 11.81 87.0121 11.81C88.2661 11.81 89.3491 12.095 90.2611 12.665C91.1791 13.229 91.8871 14.018 92.3851 15.032C92.8831 16.046 93.1321 17.222 93.1321 18.56C93.1321 19.82 92.8861 20.96 92.3941 21.98C91.9081 23 91.2061 23.81 90.2881 24.41C89.3761 25.01 88.2841 25.31 87.0121 25.31ZM94.7451 25.04V12.08H105.437V25.04H102.989V14.366H97.1931V25.04H94.7451ZM107.064 27.2V22.754C107.454 22.754 107.784 22.658 108.054 22.466C108.33 22.268 108.555 21.992 108.729 21.638C108.903 21.278 109.041 20.858 109.143 20.378C109.245 19.898 109.32 19.376 109.368 18.812C109.428 18.092 109.482 17.384 109.53 16.688C109.578 15.986 109.626 15.26 109.674 14.51C109.722 13.754 109.776 12.938 109.836 12.062L118.44 12.08V22.754H119.43V27.2H116.982V25.04H109.512V27.2H107.064ZM110.718 22.754H115.992V14.366L112.068 14.348C112.026 14.942 111.99 15.488 111.96 15.986C111.936 16.484 111.906 16.988 111.87 17.498C111.834 18.008 111.786 18.578 111.726 19.208C111.666 19.838 111.606 20.357 111.546 20.765C111.486 21.167 111.393 21.518 111.267 21.818C111.147 22.118 110.964 22.43 110.718 22.754Z" fill="#0F1525"/>
<defs>
<filter id="filter0_d_539_1018" x="0" y="0" width="50" height="50" filterUnits="userSpaceOnUse" color-interpolation-filters="sRGB">
<feFlood flood-opacity="0" result="BackgroundImageFix"/>
<feColorMatrix in="SourceAlpha" type="matrix" values="0 0 0 0 0 0 0 0 0 0 0 0 0 0 0 0 0 0 127 0" result="hardAlpha"/>
<feMorphology radius="6" operator="erode" in="SourceAlpha" result="effect1_dropShadow_539_1018"/>
<feOffset dy="6"/>
<feGaussianBlur stdDeviation="7"/>
<feComposite in2="hardAlpha" operator="out"/>
<feColorMatrix type="matrix" values="0 0 0 0 0.121569 0 0 0 0 0.337255 0 0 0 0 1 0 0 0 0.6 0"/>
<feBlend mode="normal" in2="BackgroundImageFix" result="effect1_dropShadow_539_1018"/>
<feBlend mode="normal" in="SourceGraphic" in2="effect1_dropShadow_539_1018" result="shape"/>
</filter>
<linearGradient id="paint0_linear_539_1018" x1="8" y1="2" x2="42" y2="36" gradientUnits="userSpaceOnUse">
<stop stop-color="#1F56FF"/>
<stop offset="1" stop-color="#5B86FF"/>
</linearGradient>
</defs>
</svg>
