<svg width="40" height="40" viewBox="0 0 40 40" fill="none" xmlns="http://www.w3.org/2000/svg">
<rect width="40" height="40" rx="12" fill="#1F56FF" fill-opacity="0.1"/>
<path d="M28.3334 24.0999V26.5999C28.3344 26.832 28.2868 27.0617 28.1939 27.2744C28.1009 27.487 27.9645 27.6779 27.7935 27.8348C27.6225 27.9917 27.4206 28.1112 27.2007 28.1855C26.9809 28.2599 26.7479 28.2875 26.5168 28.2666C23.9525 27.988 21.4893 27.1117 19.3251 25.7083C17.3116 24.4288 15.6046 22.7217 14.3251 20.7083C12.9168 18.5343 12.0403 16.0591 11.7668 13.4833C11.7459 13.2528 11.7733 13.0206 11.8472 12.8013C11.921 12.582 12.0397 12.3805 12.1957 12.2096C12.3517 12.0387 12.5416 11.9022 12.7533 11.8087C12.9649 11.7152 13.1937 11.6668 13.4251 11.6666H15.9251C16.3295 11.6626 16.7216 11.8058 17.0282 12.0695C17.3349 12.3332 17.5352 12.6995 17.5918 13.0999C17.6973 13.9 17.893 14.6855 18.1751 15.4416C18.2872 15.7399 18.3115 16.064 18.245 16.3757C18.1786 16.6873 18.0242 16.9733 17.8001 17.1999L16.7418 18.2583C17.9281 20.3445 19.6555 22.072 21.7418 23.2583L22.8001 22.1999C23.0267 21.9759 23.3127 21.8215 23.6244 21.755C23.936 21.6885 24.2602 21.7128 24.5584 21.8249C25.3145 22.107 26.1001 22.3027 26.9001 22.4083C27.3049 22.4654 27.6746 22.6693 27.9389 22.9812C28.2032 23.2931 28.3436 23.6912 28.3334 24.0999Z" stroke="#1F56FF" stroke-width="1.33333"/>
</svg>
