<svg width="1136" height="531" viewBox="0 0 1136 531" fill="none" xmlns="http://www.w3.org/2000/svg">
<g opacity="0.85" clip-path="url(#clip0_539_653)">
<path d="M113.592 150.397C207.7 150.397 283.989 124.967 283.989 93.5982C283.989 62.2289 207.7 36.7991 113.592 36.7991C19.4843 36.7991 -56.8052 62.2289 -56.8052 93.5982C-56.8052 124.967 19.4843 150.397 113.592 150.397Z" fill="white" fill-opacity="0.08"/>
<path d="M1003.44 511.192C1118.47 511.192 1211.71 477.286 1211.71 435.46C1211.71 393.634 1118.47 359.728 1003.44 359.728C888.424 359.728 795.181 393.634 795.181 435.46C795.181 477.286 888.424 511.192 1003.44 511.192Z" fill="white" fill-opacity="0.08"/>
<path d="M851.981 35.5982C909.491 35.5982 956.112 18.645 956.112 -2.26784C956.112 -23.1807 909.491 -40.1339 851.981 -40.1339C794.47 -40.1339 747.849 -23.1807 747.849 -2.26784C747.849 18.645 794.47 35.5982 851.981 35.5982Z" fill="white" fill-opacity="0.06"/>
<path opacity="0.7" d="M56.793 365.46C208.257 327.594 340.788 321.283 454.387 346.527C567.985 371.771 776.248 352.838 1079.18 289.728" stroke="url(#paint0_linear_539_653)" stroke-width="2.36663" stroke-dasharray="5.68 7.57"/>
<path d="M56.793 94.6652C195.635 69.4211 321.855 72.5766 435.454 104.132C549.052 135.687 763.626 126.22 1079.18 75.7321" stroke="white" stroke-opacity="0.18" stroke-width="1.41998" stroke-dasharray="3.79 7.57"/>
<g opacity="0.18">
<path d="M151.458 261.328H119.272C116.135 261.328 113.592 263.871 113.592 267.008V310.554C113.592 313.691 116.135 316.234 119.272 316.234H151.458C154.595 316.234 157.138 313.691 157.138 310.554V267.008C157.138 263.871 154.595 261.328 151.458 261.328Z" fill="white"/>
<path d="M140.572 270.795H122.586C121.801 270.795 121.166 271.43 121.166 272.215C121.166 272.999 121.801 273.635 122.586 273.635H140.572C141.356 273.635 141.992 272.999 141.992 272.215C141.992 271.43 141.356 270.795 140.572 270.795Z" fill="#0A1F4A"/>
<path d="M148.618 278.368H122.112C121.589 278.368 121.166 278.792 121.166 279.315C121.166 279.837 121.589 280.261 122.112 280.261H148.618C149.141 280.261 149.565 279.837 149.565 279.315C149.565 278.792 149.141 278.368 148.618 278.368Z" fill="#0A1F4A"/>
<path d="M144.832 284.048H122.112C121.589 284.048 121.166 284.472 121.166 284.994C121.166 285.517 121.589 285.941 122.112 285.941H144.832C145.355 285.941 145.778 285.517 145.778 284.994C145.778 284.472 145.355 284.048 144.832 284.048Z" fill="#0A1F4A"/>
<path d="M148.618 289.728H122.112C121.589 289.728 121.166 290.151 121.166 290.674C121.166 291.197 121.589 291.621 122.112 291.621H148.618C149.141 291.621 149.565 291.197 149.565 290.674C149.565 290.151 149.141 289.728 148.618 289.728Z" fill="#0A1F4A"/>
</g>
<g opacity="0.16">
<path d="M993.61 116.6L961.737 112.121C958.631 111.684 955.758 113.849 955.322 116.955L949.261 160.077C948.825 163.184 950.989 166.056 954.096 166.492L985.968 170.972C989.075 171.408 991.947 169.244 992.384 166.138L998.444 123.015C998.881 119.909 996.716 117.037 993.61 116.6Z" fill="white"/>
<path d="M981.512 124.46L963.7 121.956C962.924 121.847 962.206 122.388 962.097 123.165C961.987 123.941 962.529 124.66 963.305 124.769L981.116 127.272C981.893 127.381 982.611 126.84 982.72 126.063C982.829 125.287 982.288 124.569 981.512 124.46Z" fill="#0A1F4A"/>
<path d="M988.426 133.079L962.178 129.39C961.66 129.317 961.181 129.678 961.108 130.196C961.036 130.713 961.396 131.192 961.914 131.265L988.162 134.954C988.68 135.027 989.159 134.666 989.232 134.148C989.304 133.63 988.944 133.152 988.426 133.079Z" fill="#0A1F4A"/>
<path d="M983.886 138.177L961.387 135.015C960.869 134.942 960.391 135.303 960.318 135.82C960.245 136.338 960.606 136.817 961.124 136.889L983.622 140.051C984.14 140.124 984.619 139.764 984.691 139.246C984.764 138.728 984.403 138.249 983.886 138.177Z" fill="#0A1F4A"/>
</g>
<g opacity="0.22">
<path d="M939.073 270.795H897.42C893.237 270.795 889.847 274.185 889.847 278.368V320.021C889.847 324.203 893.237 327.594 897.42 327.594H939.073C943.255 327.594 946.646 324.203 946.646 320.021V278.368C946.646 274.185 943.255 270.795 939.073 270.795Z" fill="white"/>
<path d="M908.78 278.368H897.42V289.728H908.78V278.368Z" fill="#0A1F4A"/>
<path d="M939.072 278.368H927.713V289.728H939.072V278.368Z" fill="#0A1F4A"/>
<path d="M908.78 308.661H897.42V320.021H908.78V308.661Z" fill="#0A1F4A"/>
<path d="M917.3 278.368H914.46V281.208H917.3V278.368Z" fill="#0A1F4A"/>
<path d="M922.979 284.048H920.139V286.888H922.979V284.048Z" fill="#0A1F4A"/>
<path d="M917.3 289.728H914.46V292.568H917.3V289.728Z" fill="#0A1F4A"/>
<path d="M930.553 295.408H927.713V298.248H930.553V295.408Z" fill="#0A1F4A"/>
<path d="M922.979 301.088H920.139V303.927H922.979V301.088Z" fill="#0A1F4A"/>
<path d="M917.3 306.767H914.46V309.607H917.3V306.767Z" fill="#0A1F4A"/>
<path d="M930.553 308.661H927.713V311.501H930.553V308.661Z" fill="#0A1F4A"/>
<path d="M934.339 312.447H931.499V315.287H934.339V312.447Z" fill="#0A1F4A"/>
</g>
<path d="M56.7929 441.14C59.9299 441.14 62.4729 438.597 62.4729 435.46C62.4729 432.323 59.9299 429.78 56.7929 429.78C53.656 429.78 51.113 432.323 51.113 435.46C51.113 438.597 53.656 441.14 56.7929 441.14Z" fill="#B6F08A"/>
<path d="M1079.18 365.408C1082.31 365.408 1084.86 362.865 1084.86 359.728C1084.86 356.591 1082.31 354.048 1079.18 354.048C1076.04 354.048 1073.5 356.591 1073.5 359.728C1073.5 362.865 1076.04 365.408 1079.18 365.408Z" fill="#B6F08A"/>
<path d="M567.985 350.313C575.305 350.313 581.238 344.38 581.238 337.06C581.238 329.741 575.305 323.807 567.985 323.807C560.666 323.807 554.732 329.741 554.732 337.06C554.732 344.38 560.666 350.313 567.985 350.313Z" fill="url(#paint1_radial_539_653)"/>
<path d="M567.985 340.847C570.076 340.847 571.772 339.152 571.772 337.06C571.772 334.969 570.076 333.274 567.985 333.274C565.894 333.274 564.198 334.969 564.198 337.06C564.198 339.152 565.894 340.847 567.985 340.847Z" fill="white"/>
</g>
<defs>
<linearGradient id="paint0_linear_539_653" x1="56.793" y1="289.728" x2="1079.18" y2="289.728" gradientUnits="userSpaceOnUse">
<stop stop-color="#B6F08A" stop-opacity="0"/>
<stop offset="0.5" stop-color="#B6F08A" stop-opacity="0.9"/>
<stop offset="1" stop-color="#B6F08A" stop-opacity="0"/>
</linearGradient>
<radialGradient id="paint1_radial_539_653" cx="0" cy="0" r="1" gradientUnits="userSpaceOnUse" gradientTransform="translate(567.985 337.06) scale(13.2531)">
<stop stop-color="#B6F08A" stop-opacity="0.9"/>
<stop offset="1" stop-color="#B6F08A" stop-opacity="0"/>
</radialGradient>
<clipPath id="clip0_539_653">
<rect width="1135.97" height="530.125" fill="white"/>
</clipPath>
</defs>
</svg>
