<svg width="171" height="171" viewBox="0 0 171 171" fill="none" xmlns="http://www.w3.org/2000/svg">
<g opacity="0.7">
<path opacity="0.85" d="M102 80H28C23.5817 80 20 83.5817 20 88V132C20 136.418 23.5817 140 28 140H102C106.418 140 110 136.418 110 132V88C110 83.5817 106.418 80 102 80Z" fill="url(#paint0_linear_539_829)"/>
<path opacity="0.95" d="M154 100H116C112.686 100 110 102.686 110 106V134C110 137.314 112.686 140 116 140H154C157.314 140 160 137.314 160 134V106C160 102.686 157.314 100 154 100Z" fill="url(#paint1_linear_539_829)"/>
<path d="M149 106H121C119.343 106 118 107.343 118 109V117C118 118.657 119.343 120 121 120H149C150.657 120 152 118.657 152 117V109C152 107.343 150.657 106 149 106Z" fill="#CFE0FF"/>
<path d="M50 164C57.732 164 64 157.732 64 150C64 142.268 57.732 136 50 136C42.268 136 36 142.268 36 150C36 157.732 42.268 164 50 164Z" fill="#0F1525"/>
<path d="M50 156C53.3137 156 56 153.314 56 150C56 146.686 53.3137 144 50 144C46.6863 144 44 146.686 44 150C44 153.314 46.6863 156 50 156Z" fill="#5B86FF"/>
<path d="M135 164C142.732 164 149 157.732 149 150C149 142.268 142.732 136 135 136C127.268 136 121 142.268 121 150C121 157.732 127.268 164 135 164Z" fill="#0F1525"/>
<path d="M135 156C138.314 156 141 153.314 141 150C141 146.686 138.314 144 135 144C131.686 144 129 146.686 129 150C129 153.314 131.686 156 135 156Z" fill="#5B86FF"/>
</g>
<defs>
<linearGradient id="paint0_linear_539_829" x1="20" y1="80" x2="75.3846" y2="163.077" gradientUnits="userSpaceOnUse">
<stop stop-color="#5B86FF"/>
<stop offset="1" stop-color="#1F56FF"/>
</linearGradient>
<linearGradient id="paint1_linear_539_829" x1="110" y1="100" x2="149.024" y2="148.78" gradientUnits="userSpaceOnUse">
<stop stop-color="#5B86FF"/>
<stop offset="1" stop-color="#1F56FF"/>
</linearGradient>
</defs>
</svg>
