<svg width="170" height="170" viewBox="0 0 170 170" fill="none" xmlns="http://www.w3.org/2000/svg">
<g opacity="0.7">
<path opacity="0.5" d="M74 30H36C32.6863 30 30 32.6863 30 36V164C30 167.314 32.6863 170 36 170H74C77.3137 170 80 167.314 80 164V36C80 32.6863 77.3137 30 74 30Z" fill="#1F56FF"/>
<path opacity="0.7" d="M134 60H96C92.6863 60 90 62.6863 90 66V164C90 167.314 92.6863 170 96 170H134C137.314 170 140 167.314 140 164V66C140 62.6863 137.314 60 134 60Z" fill="#5B86FF"/>
<path opacity="0.85" d="M194 10H156C152.686 10 150 12.6863 150 16V164C150 167.314 152.686 170 156 170H194C197.314 170 200 167.314 200 164V16C200 12.6863 197.314 10 194 10Z" fill="#B6F08A"/>
<g opacity="0.7">
<path d="M70 42H40C38.8954 42 38 42.8954 38 44V46C38 47.1046 38.8954 48 40 48H70C71.1046 48 72 47.1046 72 46V44C72 42.8954 71.1046 42 70 42Z" fill="white"/>
<path d="M58 54H40C38.8954 54 38 54.8954 38 56V58C38 59.1046 38.8954 60 40 60H58C59.1046 60 60 59.1046 60 58V56C60 54.8954 59.1046 54 58 54Z" fill="white"/>
<path d="M130 72H100C98.8954 72 98 72.8954 98 74V76C98 77.1046 98.8954 78 100 78H130C131.105 78 132 77.1046 132 76V74C132 72.8954 131.105 72 130 72Z" fill="white"/>
<path d="M118 84H100C98.8954 84 98 84.8954 98 86V88C98 89.1046 98.8954 90 100 90H118C119.105 90 120 89.1046 120 88V86C120 84.8954 119.105 84 118 84Z" fill="white"/>
</g>
</g>
</svg>
